# xmcd
#
# Track frame offsets: 
#        150
#        30719
#        72765
#        89592
#        97464
#        146952
#        165769
#        191045
#        215215
#        239907
#        255300
#        270581
#
# Disc length: 3846 seconds
#
# Revision: 0
# Processed by: cddbd v1.5.2PL0 Copyright (c) Steve Scherf et al.
# Submitted via: ExactAudioCopy v1.0b4
#
DISCID=bb0f040c
DTITLE=Solamente naturali - Uhrovec 1730
DYEAR=2012
DGENRE=Classical
TTITLE0=Runda I.
TTITLE1=Runda II.
TTITLE2=Runda III.
TTITLE3=RUNDA Regis
TTITLE4=Runda IV.
TTITLE5=Runda V.
TTITLE6=Runda VI.
TTITLE7=Bolerko
TTITLE8=Runda VII.
TTITLE9=De Profundis
TTITLE10=Runda VIII.
TTITLE11=RUNDA Olach
EXTD=
EXTT0=
EXTT1=
EXTT2=
EXTT3=
EXTT4=
EXTT5=
EXTT6=
EXTT7=
EXTT8=
EXTT9=
EXTT10=
EXTT11=
PLAYORDER=
